<svg xmlns="http://www.w3.org/2000/svg" xmlns:xlink="http://www.w3.org/1999/xlink" xmlns:sketch="http://www.bohemiancoding.com/sketch/ns" class="hide"><symbol id="arrow-left" viewBox="0 0 32 32">
<path d="M18.299 6.826c-0.669 0.653-7.203 7.514-7.203 7.514-0.357 0.349-0.534 0.805-0.534 1.261s0.178 0.912 0.534 1.261c0 0 6.534 6.861 7.203 7.512 0.669 0.653 1.872 0.698 2.586 0 0.712-0.696 0.768-1.667-0.002-2.52l-5.995-6.253 5.995-6.253c0.77-0.854 0.714-1.826 0.002-2.522-0.715-0.696-1.918-0.653-2.586 0z"/>
</symbol><symbol id="arrow-right" viewBox="0 0 32 32">
<path d="M13.701 6.826c0.669 0.653 7.203 7.514 7.203 7.514 0.358 0.349 0.536 0.805 0.536 1.261s-0.178 0.912-0.536 1.261c0 0-6.534 6.861-7.203 7.512-0.669 0.653-1.87 0.698-2.586 0-0.714-0.696-0.77-1.667 0-2.52l5.997-6.253-5.995-6.253c-0.77-0.854-0.714-1.826 0-2.522s1.917-0.653 2.584 0z"/>
</symbol><symbol id="arrow-up" viewBox="0 0 32 32">
<path d="M24.773 17.899c-0.651-0.669-7.512-7.203-7.512-7.203-0.349-0.357-0.805-0.536-1.261-0.536-0.458 0-0.914 0.179-1.261 0.536 0 0-6.861 6.534-7.514 7.203-0.651 0.669-0.696 1.872 0 2.586 0.698 0.712 1.669 0.77 2.522 0l6.253-5.995 6.251 5.995c0.854 0.77 1.827 0.712 2.522 0 0.698-0.715 0.654-1.918 0-2.586z"/>
</symbol><symbol id="chat-bubble" viewBox="0 0 32 32">
<path d="M16.028 5.111c4.885 0 8.861 3.987 8.861 8.889s-3.976 8.889-8.835 8.889l-0.106-0.006c-0.098-0.007-0.195-0.013-0.293-0.017l-0.597-0.025-6.515 1.953 1.118-4.413-0.918-1.328c-1.030-1.492-1.576-3.239-1.576-5.052 0-4.902 3.975-8.889 8.861-8.889zM16.028 1.556c-6.858 0-12.417 5.572-12.417 12.444 0 2.629 0.818 5.063 2.207 7.072l-2.262 8.928 11.95-3.582c0.175 0.007 0.345 0.026 0.522 0.026 6.858 0 12.417-5.572 12.417-12.444s-5.559-12.444-12.417-12.444v0z"/>
</symbol><symbol id="check" viewBox="0 0 32 32">
<path d="M12.42 28.678l-12.433-12.238 6.168-6.071 6.265 6.167 13.426-13.214 6.168 6.071-19.594 19.285zM3.372 16.441l9.048 8.905 16.208-15.953-2.782-2.739-13.426 13.214-6.265-6.167-2.782 2.739z"/>
</symbol><symbol id="facebook" viewBox="0 0 32 32">
<path d="M24 6.206h-4.57c-0.541 0-1.144 0.71-1.144 1.662v3.299h5.714v4.704h-5.714v14.128h-5.395v-14.126h-4.891v-4.706h4.891v-2.768c0-3.97 2.755-7.2 6.538-7.2h4.571v5.006z"/>
</symbol><symbol id="feedly" viewBox="0 0 32 32">
<path d="M16.082 2.796c-0.784 0-1.79 0.349-2.182 0.74s-11.707 11.708-12.122 12.123-0.778 1.304-0.778 2.087 0.395 1.738 0.778 2.123c0.385 0.383 7.88 7.879 8.374 8.373 0.648 0.648 1.38 0.961 2.044 0.961s7.052-0.004 7.564-0.004c0.514 0 1.401-0.309 2.043-0.951 0.5-0.5 7.964-7.963 8.404-8.404 0.441-0.44 0.793-1.477 0.793-2.129s-0.427-1.715-0.792-2.082c-0.366-0.366-11.796-11.796-12.098-12.096-0.3-0.301-1.244-0.741-2.028-0.741zM16.296 22.74l1.708 1.707c0 0 0.132 0.16 0.132 0.318 0 0.16-0.127 0.312-0.127 0.312s-1.165 1.164-1.219 1.219c-0.055 0.055-0.121 0.059-0.121 0.059l-1.323 0.008-0.064-0.008c0 0-1.267-1.266-1.301-1.301-0.054-0.053-0.132-0.152-0.132-0.312 0-0.158 0.046-0.242 0.13-0.326 0.027-0.027 1.626-1.627 1.684-1.684 0.058-0.059 0.149-0.125 0.334-0.125s0.299 0.133 0.299 0.133zM16.331 15.727l1.707 1.708c0 0 0.133 0.158 0.133 0.318-0.001 0.16-0.128 0.311-0.128 0.311s-4.688 4.689-4.742 4.744c-0.054 0.053-0.121 0.059-0.121 0.059l-1.322 0.006-0.064-0.006c0 0-1.268-1.266-1.301-1.301-0.055-0.055-0.132-0.154-0.132-0.312s0.045-0.242 0.13-0.328c0.026-0.025 5.149-5.149 5.207-5.207s0.148-0.124 0.334-0.124 0.299 0.132 0.299 0.132zM16.297 8.749l1.707 1.707c0 0 0.132 0.16 0.132 0.319s-0.127 0.312-0.127 0.312-8.16 8.16-8.215 8.214-0.121 0.059-0.121 0.059l-1.323 0.007-0.064-0.008c0 0-1.267-1.266-1.3-1.299-0.055-0.055-0.132-0.154-0.132-0.312 0-0.16 0.045-0.244 0.13-0.328 0.026-0.027 8.621-8.623 8.68-8.68s0.148-0.123 0.334-0.123c0.184 0 0.299 0.132 0.299 0.132z"/>
</symbol><symbol id="gplus" viewBox="0 0 32 32">
    <!-- Generator: Sketch 3.4 (15575) - http://www.bohemiancoding.com/sketch -->
    <title>32</title>
    <desc>Created with Sketch.</desc>
    
    <g id="Page-1" stroke="none" stroke-width="1" fill-rule="evenodd" sketch:type="MSPage">
        <g id="32" sketch:type="MSArtboardGroup">
            <g id="Fill-20-+-Fill-21" sketch:type="MSLayerGroup" transform="translate(2.000000, 7.000000)">
                <path d="M0.0245157124,9.33348593 C0.103961773,4.61922267 4.47380915,0.490777554 9.22707012,0.64805462 C11.5046285,0.543099429 13.64559,1.52600323 15.3899492,2.90661557 C14.6454171,3.74563422 13.8745077,4.55382033 13.0508436,5.30968456 C10.9538444,3.87239019 7.97163395,3.46160118 5.87463475,5.1218864 C2.87483941,7.17956872 2.73824243,12.0380286 5.62373593,14.252988 C8.42978337,16.7784528 13.7335145,15.5245964 14.5088201,11.6577607 C12.7512723,11.6315997 10.9890142,11.6577607 9.23146635,11.6010786 C9.22707012,10.5611814 9.2226739,9.52128409 9.22707012,8.48169825 C12.1653183,8.47297794 15.1035665,8.46830634 18.0462109,8.49041857 C18.2223739,10.9370891 17.8964253,13.5410367 16.3809838,15.5638378 C14.0858405,18.7663726 9.47828296,19.7013147 5.8834272,18.3294226 C2.27569679,16.9662509 -0.279451826,13.1869298 0.0245157124,9.33348593" id="Fill-20" sketch:type="MSShapeGroup"/>
                <path d="M23.4030425,5.74059595 L26.0241344,5.74059595 C26.0285307,6.61013569 26.0329269,7.48403558 26.0417193,8.35326388 C26.9184522,8.36229563 27.7995812,8.36229563 28.676,8.37101595 L28.676,10.9706034 C27.7995812,10.9793237 26.9228484,10.9836839 26.0417193,10.9924042 C26.0329269,11.8659926 26.0285307,12.7355324 26.0241344,13.6050721 L23.3986462,13.6050721 C23.3898538,12.7355324 23.3898538,11.8659926 23.3810613,10.9967643 C22.5043285,10.988044 21.6235135,10.9793237 20.7467807,10.9706034 L20.7467807,8.37101595 C21.6235135,8.36229563 22.4999323,8.35793548 23.3810613,8.35326388 C23.3854576,7.47967543 23.39425,6.61013569 23.4030425,5.74059595" id="Fill-21" sketch:type="MSShapeGroup"/>
            </g>
        </g>
    </g>
</symbol><symbol id="hatebu" viewBox="0 0 32 32">
<path d="M24.682 3.266h5.926v16.585h-5.926v-16.585zM31 25.234c0 1.854-1.503 3.356-3.356 3.356s-3.356-1.503-3.356-3.356c0-1.854 1.503-3.356 3.356-3.356s3.356 1.503 3.356 3.356zM16.134 14.922c1.302-0.634 4.319-1.554 4.113-5.441 0-3.881-3.388-6.206-6.549-6.206s-12.698 0.001-12.698 0.001v25.299c0 0 11.321 0 12.985 0 0.543 0 7.234 0 7.16-7.685-0.13-5.067-3.454-5.629-5.011-5.968zM7.468 8.207c0 0 3.17 0 3.783 0 0.614 0 2.3 0.511 2.3 2.505 0 1.539-1.277 2.504-1.891 2.504s-4.192 0-4.192 0v-5.009zM12.069 23.49c-0.513 0-4.602 0-4.602 0v-5.571c0 0 3.17 0 3.783 0 0.614 0 3.169 0.511 3.169 2.785s-1.837 2.786-2.35 2.786z"/>
</symbol><symbol id="new-window" viewBox="0 0 32 32">
<path d="M30.222 1.556h-17.778c-0.982 0-1.778 0.796-1.778 1.778v5.333h-8.889c-0.982 0-1.778 0.796-1.778 1.778v17.778c0 0.982 0.796 1.778 1.778 1.778h17.778c0.982 0 1.778-0.796 1.778-1.778v-5.333h8.889c0.982 0 1.778-0.796 1.778-1.778v-17.778c0-0.982-0.796-1.778-1.778-1.778zM17.778 25.556c0 0.49-0.398 0.889-0.889 0.889h-12.444c-0.491 0-0.889-0.398-0.889-0.889v-12.444c0-0.491 0.398-0.889 0.889-0.889h12.444c0.491 0 0.889 0.398 0.889 0.889v12.444zM28.444 18.444c0 0.49-0.398 0.889-0.889 0.889h-6.222v-8.889c0-0.982-0.796-1.778-1.778-1.778h-5.333v-2.667c0-0.491 0.398-0.889 0.889-0.889h12.444c0.491 0 0.889 0.398 0.889 0.889v12.444z"/>
</symbol><symbol id="pocket" viewBox="0 0 32 32">
<path d="M30.307 3.529c-0.437-0.479-1.080-0.813-1.742-0.813-0.414 0-23.010 0-25.073 0-0.781 0-1.536 0.503-1.942 1.037-0.493 0.65-0.55 1.366-0.55 1.509 0 0.261 0 3.091 0 9.575 0 6.486 5.068 14.447 15.553 14.447 7.358 0 14.447-6.26 14.447-14.502 0-1.602 0-9.020 0-9.521 0-0.672-0.287-1.285-0.693-1.732zM24.991 13.386c-0.21 0.212-7.688 7.354-7.688 7.354s-0.496 0.463-1.286 0.463-1.376-0.463-1.376-0.463-7.381-7.189-7.551-7.354-0.705-1.64 0.406-2.521c1.111-0.987 2.506-0.351 2.751-0.105s5.77 5.537 5.77 5.537l5.765-5.537c0.28-0.354 1.902-0.899 2.837 0.176 0.969 1.092 0.581 2.239 0.372 2.45z"/>
</symbol><symbol id="quote" viewBox="0 0 20 32">
<path d="M0 16v8h8v-8h-4c0 0 0-4 4-4v-4c0 0-8 0-8 8zM20 12v-4c0 0-8 0-8 8v8h8v-8h-4c0 0 0-4 4-4z"/>
</symbol><symbol id="rriver" viewBox="0 0 32 32">
<path d="M23.207 27.665c-1.197-0.868-2.841-2.706-4.928-5.51-2.563-3.465-4.427-5.469-5.588-6.021 2.577-0.312 4.53-1.105 5.859-2.383 1.329-1.275 1.994-2.817 1.994-4.623 0-1.548-0.511-2.878-1.529-3.992s-2.353-1.914-4.002-2.403c-1.651-0.49-3.795-0.733-6.428-0.733-0.592 0-3.277 0.008-4.026 0.026v1.087c0.647-0.054 3.232-0.083 3.731-0.083 3.258 0 5.375 0.584 6.345 1.753 0.971 1.167 1.456 2.724 1.456 4.664 0 1.112-0.142 2.051-0.428 2.812s-0.675 1.375-1.172 1.843c-0.494 0.468-1.143 0.826-1.945 1.069-0.8 0.244-1.745 0.393-2.831 0.448-1.082 0.053-1.459 0.096-2.476 0.122v0.95h0.418c0.747 0 1.296 0.126 1.651 0.375 0.353 0.251 0.999 0.95 1.935 2.095 0.938 1.145 1.842 2.342 2.711 3.588 2.716 3.902 4.733 6.319 6.052 7.251h7.435v-0.951c-1.629-0.054-3.042-0.514-4.234-1.384z"/>
</symbol><symbol id="rss" viewBox="0 0 32 32">
<path d="M3.203 4.078v3.789c11.338 0 20.528 9.192 20.528 20.53h3.79c0-13.43-10.888-24.318-24.318-24.318zM3.203 11.658v3.79c7.152 0 12.95 5.797 12.95 12.949h3.787c0-9.243-7.493-16.739-16.738-16.739zM6.835 21.133c-2.005 0-3.632 1.627-3.632 3.634s1.627 3.632 3.632 3.632c2.006 0 3.634-1.626 3.634-3.632s-1.627-3.634-3.634-3.634z"/>
</symbol><symbol id="search" viewBox="0 0 32 32">
<path d="M12.465 5.111c3.898 0 7.070 3.19 7.070 7.111 0 1.477-0.453 2.898-1.311 4.11l-0.696 0.983-0.977 0.699c-1.205 0.863-2.618 1.319-4.086 1.319-3.899 0-7.070-3.19-7.070-7.111s3.171-7.111 7.070-7.111zM12.465 1.556c-5.858 0-10.606 4.776-10.606 10.667s4.748 10.667 10.606 10.667c2.289 0 4.403-0.737 6.135-1.977l8.517 8.566c0.346 0.348 0.799 0.522 1.253 0.522s0.906-0.174 1.252-0.522c0.692-0.695 0.692-1.823 0-2.518l-8.517-8.566c1.233-1.743 1.965-3.869 1.965-6.171 0-5.891-4.748-10.667-10.605-10.667v0z"/>
</symbol><symbol id="twitter" viewBox="0 0 32 32">
<path d="M30.72 6.469c-1.085 0.482-2.248 0.805-3.47 0.952 1.248-0.747 2.206-1.931 2.656-3.341-1.166 0.691-2.459 1.195-3.834 1.466-1.102-1.174-2.672-1.907-4.41-1.907-3.336 0-6.040 2.704-6.040 6.038 0 0.474 0.053 0.934 0.157 1.376-5.019-0.251-9.47-2.656-12.448-6.31-0.522 0.891-0.821 1.93-0.821 3.037 0 2.096 1.067 3.944 2.688 5.027-0.99-0.032-1.922-0.302-2.736-0.755 0 0.026 0 0.050 0 0.075 0 2.926 2.083 5.366 4.845 5.923-0.506 0.138-1.040 0.211-1.592 0.211-0.389 0-0.766-0.037-1.136-0.107 0.768 2.4 3 4.146 5.642 4.194-2.067 1.621-4.67 2.586-7.501 2.586-0.488 0-0.968-0.029-1.44-0.085 2.672 1.714 5.846 2.714 9.259 2.714 11.109 0 17.184-9.203 17.184-17.186 0-0.261-0.005-0.522-0.018-0.781 1.181-0.851 2.203-1.915 3.014-3.126z"/>
</symbol></svg>