<svg xmlns="http://www.w3.org/2000/svg" class="hide"><symbol id="arrow-left" viewBox="0 0 32 32"><path d="M18.3 6.826c-.67.653-7.204 7.514-7.204 7.514-.357.35-.534.805-.534 1.26s.178.913.534 1.262c0 0 6.534 6.86 7.203 7.512.668.653 1.87.698 2.585 0 .712-.696.768-1.667-.002-2.52L14.888 15.6l5.995-6.252c.77-.854.714-1.826.002-2.522-.715-.696-1.918-.653-2.586 0z"/></symbol><symbol id="arrow-right" viewBox="0 0 32 32"><path d="M13.7 6.826c.67.653 7.204 7.514 7.204 7.514.358.35.536.805.536 1.26s-.178.913-.536 1.262c0 0-6.534 6.86-7.203 7.512-.668.653-1.87.698-2.585 0-.714-.696-.77-1.667 0-2.52l5.997-6.253-5.995-6.252c-.77-.854-.714-1.826 0-2.522s1.917-.653 2.584 0z"/></symbol><symbol id="arrow-up" viewBox="0 0 32 32"><path d="M24.773 17.9c-.65-.67-7.512-7.204-7.512-7.204-.348-.357-.804-.536-1.26-.536-.458 0-.914.18-1.26.536 0 0-6.862 6.534-7.515 7.203-.65.668-.696 1.87 0 2.585.698.712 1.67.77 2.522 0L16 14.49l6.25 5.995c.855.77 1.828.712 2.523 0 .698-.715.654-1.918 0-2.586z"/></symbol><symbol id="chat-bubble" viewBox="0 0 32 32"><path d="M16.028 5.11c4.885 0 8.86 3.988 8.86 8.89s-3.975 8.89-8.834 8.89l-.106-.007c-.098-.007-.195-.013-.293-.017l-.597-.025-6.515 1.954L9.66 20.38l-.917-1.327C7.713 17.56 7.167 15.813 7.167 14c0-4.9 3.975-8.888 8.86-8.888zm0-3.554C9.17 1.556 3.61 7.128 3.61 14c0 2.63.82 5.063 2.208 7.072L3.556 30l11.95-3.582c.175.007.345.026.522.026 6.858 0 12.417-5.572 12.417-12.444S22.885 1.556 16.028 1.556z"/></symbol><symbol id="check" viewBox="0 0 32 32"><path d="M12.42 28.678L-.013 16.44l6.168-6.07 6.265 6.166L25.846 3.322l6.168 6.07L12.42 28.68zM3.372 16.44l9.048 8.906L28.628 9.393l-2.782-2.74L12.42 19.87 6.155 13.7l-2.782 2.74z"/></symbol><symbol id="facebook" viewBox="0 0 32 32"><path d="M24 6.206h-4.57c-.54 0-1.144.71-1.144 1.662v3.3H24v4.703h-5.714V30H12.89V15.872H8v-4.706h4.89V8.4c0-3.97 2.756-7.2 6.54-7.2H24v5.005z"/></symbol><symbol id="feedly" viewBox="0 0 32 32"><path d="M16.082 2.796c-.784 0-1.79.35-2.182.74S2.193 15.244 1.778 15.66 1 16.962 1 17.745s.395 1.738.778 2.123c.385.382 7.88 7.878 8.374 8.372.648.648 1.38.96 2.044.96l7.564-.003c.514 0 1.4-.31 2.043-.952l8.404-8.404c.44-.44.793-1.477.793-2.13s-.427-1.714-.792-2.08c-.366-.367-11.796-11.797-12.098-12.097-.3-.3-1.244-.74-2.028-.74zm.214 19.944l1.708 1.707s.132.16.132.318c0 .16-.127.312-.127.312l-1.22 1.22c-.055.054-.12.058-.12.058l-1.324.008-.064-.008-1.3-1.3c-.055-.054-.133-.153-.133-.313 0-.158.045-.242.13-.326l1.683-1.684c.058-.06.15-.125.334-.125s.3.133.3.133zm.035-7.013l1.708 1.708s.133.158.133.318-.127.31-.127.31L13.3 22.81c-.053.053-.12.06-.12.06l-1.322.005-.064-.006s-1.268-1.266-1.3-1.3c-.056-.056-.133-.155-.133-.313s.046-.242.13-.328c.027-.025 5.15-5.15 5.208-5.207s.148-.125.334-.125.3.132.3.132zm-.033-6.978l1.707 1.706s.132.16.132.32-.127.31-.127.31l-8.216 8.215-.12.06-1.324.007-.064-.008-1.3-1.3c-.055-.055-.132-.154-.132-.312 0-.16.045-.244.13-.328.026-.027 8.62-8.623 8.68-8.68s.148-.123.334-.123c.184 0 .3.132.3.132z"/></symbol><symbol id="gplus" viewBox="0 0 32 32"><title>32</title><g fill-rule="evenodd"><path d="M2.025 16.333c.08-4.714 4.45-8.842 9.202-8.685 2.278-.105 4.42.878 6.163 2.26-.745.838-1.515 1.646-2.34 2.402-2.096-1.438-5.078-1.848-7.175-.188-3 2.058-3.137 6.916-.25 9.13 2.805 2.526 8.11 1.273 8.884-2.594-1.76-.026-3.52 0-5.28-.057-.003-1.04-.007-2.08-.003-3.118 2.938-.01 5.877-.014 8.82.008.175 2.447-.15 5.05-1.666 7.074-2.294 3.202-6.902 4.137-10.497 2.765-3.607-1.364-6.162-5.143-5.858-8.997M25.403 12.74h2.62c.006.87.01 1.744.02 2.613.875.01 1.757.01 2.633.018v2.6c-.876.01-1.753.014-2.634.022-.01.874-.013 1.744-.018 2.613H25.4c-.01-.87-.01-1.74-.02-2.608-.876-.01-1.756-.018-2.633-.026v-2.6c.877-.008 1.753-.012 2.634-.017.005-.873.014-1.743.023-2.612"/></g></symbol><symbol id="hatebu" viewBox="0 0 32 32"><path d="M24.682 3.266h5.926V19.85h-5.926V3.267zM31 25.234c0 1.854-1.503 3.356-3.356 3.356s-3.356-1.503-3.356-3.356c0-1.854 1.503-3.356 3.356-3.356S31 23.38 31 25.234zM16.134 14.922c1.302-.634 4.32-1.554 4.113-5.44 0-3.882-3.388-6.207-6.55-6.207H1v25.3h12.985c.543 0 7.234 0 7.16-7.685-.13-5.067-3.454-5.63-5.01-5.968zM7.468 8.207h3.783c.615 0 2.3.51 2.3 2.505 0 1.54-1.276 2.504-1.89 2.504H7.468v-5.01zm4.6 15.283h-4.6v-5.57h3.782c.614 0 3.17.51 3.17 2.784s-1.838 2.786-2.35 2.786z"/></symbol><symbol id="new-window" viewBox="0 0 32 32"><path d="M30.222 1.556H12.444c-.982 0-1.778.796-1.778 1.778v5.333h-8.89C.797 8.667 0 9.463 0 10.445v17.778C0 29.205.794 30 1.776 30h17.778c.982 0 1.778-.795 1.778-1.777V22.89h8.89c.98 0 1.777-.796 1.777-1.778V3.334c0-.982-.796-1.778-1.778-1.778zm-12.444 24c0 .49-.398.89-.89.89H4.446c-.49 0-.89-.4-.89-.89V13.112c0-.49.4-.89.89-.89H16.89c.49 0 .888.4.888.89v12.444zm10.666-7.112c0 .49-.398.89-.89.89h-6.22v-8.89c0-.982-.797-1.778-1.78-1.778h-5.332V6c0-.492.398-.89.89-.89h12.443c.49 0 .89.398.89.89v12.443z"/></symbol><symbol id="pocket" viewBox="0 0 32 32"><path d="M30.307 3.53c-.437-.48-1.08-.814-1.742-.814H3.492c-.78 0-1.536.503-1.942 1.037-.493.65-.55 1.366-.55 1.51v9.574c0 6.486 5.068 14.447 15.553 14.447C23.91 29.284 31 23.024 31 14.782v-9.52c0-.673-.287-1.286-.693-1.733zm-5.316 9.856c-.21.212-7.687 7.354-7.687 7.354s-.496.463-1.286.463-1.376-.463-1.376-.463l-7.55-7.354s-.705-1.64.406-2.52c1.11-.988 2.506-.352 2.75-.106s5.77 5.537 5.77 5.537l5.766-5.537c.28-.354 1.902-.9 2.837.176.968 1.092.58 2.24.37 2.45z"/></symbol><symbol id="quote" viewBox="0 0 20 32"><path d="M0 16v8h8v-8H4s0-4 4-4V8s-8 0-8 8zm20-4V8s-8 0-8 8v8h8v-8h-4s0-4 4-4z"/></symbol><symbol id="rriver" viewBox="0 0 32 32"><path d="M23.207 27.665c-1.197-.868-2.84-2.706-4.928-5.51-2.564-3.465-4.428-5.47-5.59-6.02 2.578-.313 4.53-1.106 5.86-2.384 1.33-1.274 1.994-2.816 1.994-4.622 0-1.548-.51-2.878-1.53-3.992s-2.352-1.914-4-2.403C13.36 2.243 11.217 2 8.583 2c-.59 0-3.276.008-4.025.026v1.087c.646-.054 3.23-.083 3.73-.083 3.258 0 5.375.584 6.345 1.753.97 1.167 1.456 2.724 1.456 4.664 0 1.112-.14 2.05-.427 2.812s-.675 1.374-1.172 1.842c-.493.468-1.142.826-1.944 1.07-.8.243-1.745.392-2.83.447-1.083.052-1.46.095-2.477.12v.95h.417c.747 0 1.296.127 1.65.376.354.25 1 .95 1.936 2.095.938 1.146 1.842 2.343 2.71 3.59 2.717 3.9 4.734 6.318 6.053 7.25h7.435v-.95c-1.628-.055-3.04-.515-4.233-1.385z"/></symbol><symbol id="rss" viewBox="0 0 32 32"><path d="M3.203 4.078v3.79c11.338 0 20.528 9.19 20.528 20.53h3.79c0-13.43-10.887-24.32-24.317-24.32zm0 7.58v3.79c7.152 0 12.95 5.797 12.95 12.95h3.787c0-9.244-7.493-16.74-16.738-16.74zm3.632 9.475c-2.005 0-3.632 1.627-3.632 3.634S4.83 28.4 6.835 28.4c2.006 0 3.634-1.627 3.634-3.633s-1.628-3.634-3.635-3.634z"/></symbol><symbol id="search" viewBox="0 0 32 32"><path d="M12.465 5.11c3.898 0 7.07 3.19 7.07 7.112 0 1.477-.453 2.898-1.31 4.11l-.697.983-.977.7c-1.204.862-2.617 1.318-4.085 1.318-3.9 0-7.07-3.19-7.07-7.11s3.17-7.112 7.07-7.112zm0-3.554C6.607 1.556 1.86 6.332 1.86 12.223S6.606 22.89 12.464 22.89c2.29 0 4.403-.737 6.135-1.977l8.517 8.566c.346.347.8.52 1.253.52s.906-.173 1.252-.52c.692-.696.692-1.824 0-2.52l-8.517-8.565c1.233-1.743 1.965-3.87 1.965-6.17 0-5.892-4.748-10.668-10.605-10.668z"/></symbol><symbol id="twitter" viewBox="0 0 32 32"><path d="M30.72 6.47c-1.085.48-2.248.804-3.47.95 1.248-.746 2.206-1.93 2.656-3.34-1.166.69-2.46 1.195-3.834 1.466C24.97 4.372 23.4 3.64 21.662 3.64c-3.336 0-6.04 2.703-6.04 6.037 0 .474.053.934.157 1.376-5.02-.25-9.47-2.656-12.45-6.31-.52.89-.82 1.93-.82 3.037 0 2.096 1.067 3.944 2.688 5.027-.99-.032-1.922-.302-2.736-.755v.075c0 2.926 2.083 5.366 4.845 5.923-.506.138-1.04.21-1.592.21-.39 0-.766-.036-1.136-.106.767 2.4 3 4.146 5.64 4.194-2.066 1.62-4.67 2.586-7.5 2.586-.488 0-.968-.03-1.44-.085 2.672 1.713 5.846 2.713 9.26 2.713 11.108 0 17.183-9.203 17.183-17.186 0-.26-.005-.522-.018-.78 1.18-.852 2.203-1.916 3.014-3.127z"/></symbol></svg>