<?xml version="1.0" encoding="utf-8"?>
<!-- Generated by IcoMoon.io -->
<!DOCTYPE svg PUBLIC "-//W3C//DTD SVG 1.1//EN" "http://www.w3.org/Graphics/SVG/1.1/DTD/svg11.dtd">
<svg version="1.1" xmlns="http://www.w3.org/2000/svg" xmlns:xlink="http://www.w3.org/1999/xlink" width="32" height="32" viewBox="0 0 32 32">
<path fill="#000000" d="M16.028 5.111c4.885 0 8.861 3.987 8.861 8.889s-3.976 8.889-8.835 8.889l-0.106-0.006c-0.098-0.007-0.195-0.013-0.293-0.017l-0.597-0.025-6.515 1.953 1.118-4.413-0.918-1.328c-1.030-1.492-1.576-3.239-1.576-5.052 0-4.902 3.975-8.889 8.861-8.889zM16.028 1.556c-6.858 0-12.417 5.572-12.417 12.444 0 2.629 0.818 5.063 2.207 7.072l-2.262 8.928 11.95-3.582c0.175 0.007 0.345 0.026 0.522 0.026 6.858 0 12.417-5.572 12.417-12.444s-5.559-12.444-12.417-12.444v0z"></path>
</svg>
