<?xml version="1.0" encoding="utf-8"?>
<!-- Generated by IcoMoon.io -->
<!DOCTYPE svg PUBLIC "-//W3C//DTD SVG 1.1//EN" "http://www.w3.org/Graphics/SVG/1.1/DTD/svg11.dtd">
<svg version="1.1" xmlns="http://www.w3.org/2000/svg" xmlns:xlink="http://www.w3.org/1999/xlink" width="32" height="32" viewBox="0 0 32 32">
<path fill="#000000" d="M16.082 2.796c-0.784 0-1.79 0.349-2.182 0.74s-11.707 11.708-12.122 12.123-0.778 1.304-0.778 2.087 0.395 1.738 0.778 2.123c0.385 0.383 7.88 7.879 8.374 8.373 0.648 0.648 1.38 0.961 2.044 0.961s7.052-0.004 7.564-0.004c0.514 0 1.401-0.309 2.043-0.951 0.5-0.5 7.964-7.963 8.404-8.404 0.441-0.44 0.793-1.477 0.793-2.129s-0.427-1.715-0.792-2.082c-0.366-0.366-11.796-11.796-12.098-12.096-0.3-0.301-1.244-0.741-2.028-0.741zM16.296 22.74l1.708 1.707c0 0 0.132 0.16 0.132 0.318 0 0.16-0.127 0.312-0.127 0.312s-1.165 1.164-1.219 1.219c-0.055 0.055-0.121 0.059-0.121 0.059l-1.323 0.008-0.064-0.008c0 0-1.267-1.266-1.301-1.301-0.054-0.053-0.132-0.152-0.132-0.312 0-0.158 0.046-0.242 0.13-0.326 0.027-0.027 1.626-1.627 1.684-1.684 0.058-0.059 0.149-0.125 0.334-0.125s0.299 0.133 0.299 0.133zM16.331 15.727l1.707 1.708c0 0 0.133 0.158 0.133 0.318-0.001 0.16-0.128 0.311-0.128 0.311s-4.688 4.689-4.742 4.744c-0.054 0.053-0.121 0.059-0.121 0.059l-1.322 0.006-0.064-0.006c0 0-1.268-1.266-1.301-1.301-0.055-0.055-0.132-0.154-0.132-0.312s0.045-0.242 0.13-0.328c0.026-0.025 5.149-5.149 5.207-5.207s0.148-0.124 0.334-0.124 0.299 0.132 0.299 0.132zM16.297 8.749l1.707 1.707c0 0 0.132 0.16 0.132 0.319s-0.127 0.312-0.127 0.312-8.16 8.16-8.215 8.214-0.121 0.059-0.121 0.059l-1.323 0.007-0.064-0.008c0 0-1.267-1.266-1.3-1.299-0.055-0.055-0.132-0.154-0.132-0.312 0-0.16 0.045-0.244 0.13-0.328 0.026-0.027 8.621-8.623 8.68-8.68s0.148-0.123 0.334-0.123c0.184 0 0.299 0.132 0.299 0.132z"></path>
</svg>
