<?xml version="1.0" encoding="UTF-8" standalone="no"?>
<svg width="32px" height="32px" viewBox="0 0 32 32" version="1.1" xmlns="http://www.w3.org/2000/svg" xmlns:xlink="http://www.w3.org/1999/xlink" xmlns:sketch="http://www.bohemiancoding.com/sketch/ns">
    <!-- Generator: Sketch 3.4 (15575) - http://www.bohemiancoding.com/sketch -->
    <title>32</title>
    <desc>Created with Sketch.</desc>
    <defs></defs>
    <g id="Page-1" stroke="none" stroke-width="1" fill="none" fill-rule="evenodd" sketch:type="MSPage">
        <g id="32" sketch:type="MSArtboardGroup" fill="#000000">
            <g id="Fill-20-+-Fill-21" sketch:type="MSLayerGroup" transform="translate(2.000000, 7.000000)">
                <path d="M0.0245157124,9.33348593 C0.103961773,4.61922267 4.47380915,0.490777554 9.22707012,0.64805462 C11.5046285,0.543099429 13.64559,1.52600323 15.3899492,2.90661557 C14.6454171,3.74563422 13.8745077,4.55382033 13.0508436,5.30968456 C10.9538444,3.87239019 7.97163395,3.46160118 5.87463475,5.1218864 C2.87483941,7.17956872 2.73824243,12.0380286 5.62373593,14.252988 C8.42978337,16.7784528 13.7335145,15.5245964 14.5088201,11.6577607 C12.7512723,11.6315997 10.9890142,11.6577607 9.23146635,11.6010786 C9.22707012,10.5611814 9.2226739,9.52128409 9.22707012,8.48169825 C12.1653183,8.47297794 15.1035665,8.46830634 18.0462109,8.49041857 C18.2223739,10.9370891 17.8964253,13.5410367 16.3809838,15.5638378 C14.0858405,18.7663726 9.47828296,19.7013147 5.8834272,18.3294226 C2.27569679,16.9662509 -0.279451826,13.1869298 0.0245157124,9.33348593" id="Fill-20" sketch:type="MSShapeGroup"></path>
                <path d="M23.4030425,5.74059595 L26.0241344,5.74059595 C26.0285307,6.61013569 26.0329269,7.48403558 26.0417193,8.35326388 C26.9184522,8.36229563 27.7995812,8.36229563 28.676,8.37101595 L28.676,10.9706034 C27.7995812,10.9793237 26.9228484,10.9836839 26.0417193,10.9924042 C26.0329269,11.8659926 26.0285307,12.7355324 26.0241344,13.6050721 L23.3986462,13.6050721 C23.3898538,12.7355324 23.3898538,11.8659926 23.3810613,10.9967643 C22.5043285,10.988044 21.6235135,10.9793237 20.7467807,10.9706034 L20.7467807,8.37101595 C21.6235135,8.36229563 22.4999323,8.35793548 23.3810613,8.35326388 C23.3854576,7.47967543 23.39425,6.61013569 23.4030425,5.74059595" id="Fill-21" sketch:type="MSShapeGroup"></path>
            </g>
        </g>
    </g>
</svg>