<?xml version="1.0" encoding="utf-8"?>
<!-- Generated by IcoMoon.io -->
<!DOCTYPE svg PUBLIC "-//W3C//DTD SVG 1.1//EN" "http://www.w3.org/Graphics/SVG/1.1/DTD/svg11.dtd">
<svg version="1.1" xmlns="http://www.w3.org/2000/svg" xmlns:xlink="http://www.w3.org/1999/xlink" width="32" height="32" viewBox="0 0 32 32">
<path fill="#000000" d="M24.682 3.266h5.926v16.585h-5.926v-16.585zM31 25.234c0 1.854-1.503 3.356-3.356 3.356s-3.356-1.503-3.356-3.356c0-1.854 1.503-3.356 3.356-3.356s3.356 1.503 3.356 3.356zM16.134 14.922c1.302-0.634 4.319-1.554 4.113-5.441 0-3.881-3.388-6.206-6.549-6.206s-12.698 0.001-12.698 0.001v25.299c0 0 11.321 0 12.985 0 0.543 0 7.234 0 7.16-7.685-0.13-5.067-3.454-5.629-5.011-5.968zM7.468 8.207c0 0 3.17 0 3.783 0 0.614 0 2.3 0.511 2.3 2.505 0 1.539-1.277 2.504-1.891 2.504s-4.192 0-4.192 0v-5.009zM12.069 23.49c-0.513 0-4.602 0-4.602 0v-5.571c0 0 3.17 0 3.783 0 0.614 0 3.169 0.511 3.169 2.785s-1.837 2.786-2.35 2.786z"></path>
</svg>
