<?xml version="1.0" encoding="utf-8"?>
<!-- Generated by IcoMoon.io -->
<!DOCTYPE svg PUBLIC "-//W3C//DTD SVG 1.1//EN" "http://www.w3.org/Graphics/SVG/1.1/DTD/svg11.dtd">
<svg version="1.1" xmlns="http://www.w3.org/2000/svg" xmlns:xlink="http://www.w3.org/1999/xlink" width="32" height="32" viewBox="0 0 32 32">
<path fill="#000000" d="M30.222 1.556h-17.778c-0.982 0-1.778 0.796-1.778 1.778v5.333h-8.889c-0.982 0-1.778 0.796-1.778 1.778v17.778c0 0.982 0.796 1.778 1.778 1.778h17.778c0.982 0 1.778-0.796 1.778-1.778v-5.333h8.889c0.982 0 1.778-0.796 1.778-1.778v-17.778c0-0.982-0.796-1.778-1.778-1.778zM17.778 25.556c0 0.49-0.398 0.889-0.889 0.889h-12.444c-0.491 0-0.889-0.398-0.889-0.889v-12.444c0-0.491 0.398-0.889 0.889-0.889h12.444c0.491 0 0.889 0.398 0.889 0.889v12.444zM28.444 18.444c0 0.49-0.398 0.889-0.889 0.889h-6.222v-8.889c0-0.982-0.796-1.778-1.778-1.778h-5.333v-2.667c0-0.491 0.398-0.889 0.889-0.889h12.444c0.491 0 0.889 0.398 0.889 0.889v12.444z"></path>
</svg>
