<?xml version="1.0" encoding="utf-8"?>
<!-- Generated by IcoMoon.io -->
<!DOCTYPE svg PUBLIC "-//W3C//DTD SVG 1.1//EN" "http://www.w3.org/Graphics/SVG/1.1/DTD/svg11.dtd">
<svg version="1.1" xmlns="http://www.w3.org/2000/svg" xmlns:xlink="http://www.w3.org/1999/xlink" width="32" height="32" viewBox="0 0 32 32">
<path fill="#000000" d="M30.307 3.529c-0.437-0.479-1.080-0.813-1.742-0.813-0.414 0-23.010 0-25.073 0-0.781 0-1.536 0.503-1.942 1.037-0.493 0.65-0.55 1.366-0.55 1.509 0 0.261 0 3.091 0 9.575 0 6.486 5.068 14.447 15.553 14.447 7.358 0 14.447-6.26 14.447-14.502 0-1.602 0-9.020 0-9.521 0-0.672-0.287-1.285-0.693-1.732zM24.991 13.386c-0.21 0.212-7.688 7.354-7.688 7.354s-0.496 0.463-1.286 0.463-1.376-0.463-1.376-0.463-7.381-7.189-7.551-7.354-0.705-1.64 0.406-2.521c1.111-0.987 2.506-0.351 2.751-0.105s5.77 5.537 5.77 5.537l5.765-5.537c0.28-0.354 1.902-0.899 2.837 0.176 0.969 1.092 0.581 2.239 0.372 2.45z"></path>
</svg>
