<?xml version="1.0" encoding="utf-8"?>
<!-- Generated by IcoMoon.io -->
<!DOCTYPE svg PUBLIC "-//W3C//DTD SVG 1.1//EN" "http://www.w3.org/Graphics/SVG/1.1/DTD/svg11.dtd">
<svg version="1.1" xmlns="http://www.w3.org/2000/svg" xmlns:xlink="http://www.w3.org/1999/xlink" width="32" height="32" viewBox="0 0 32 32">
<path fill="#000000" d="M23.207 27.665c-1.197-0.868-2.841-2.706-4.928-5.51-2.563-3.465-4.427-5.469-5.588-6.021 2.577-0.312 4.53-1.105 5.859-2.383 1.329-1.275 1.994-2.817 1.994-4.623 0-1.548-0.511-2.878-1.529-3.992s-2.353-1.914-4.002-2.403c-1.651-0.49-3.795-0.733-6.428-0.733-0.592 0-3.277 0.008-4.026 0.026v1.087c0.647-0.054 3.232-0.083 3.731-0.083 3.258 0 5.375 0.584 6.345 1.753 0.971 1.167 1.456 2.724 1.456 4.664 0 1.112-0.142 2.051-0.428 2.812s-0.675 1.375-1.172 1.843c-0.494 0.468-1.143 0.826-1.945 1.069-0.8 0.244-1.745 0.393-2.831 0.448-1.082 0.053-1.459 0.096-2.476 0.122v0.95h0.418c0.747 0 1.296 0.126 1.651 0.375 0.353 0.251 0.999 0.95 1.935 2.095 0.938 1.145 1.842 2.342 2.711 3.588 2.716 3.902 4.733 6.319 6.052 7.251h7.435v-0.951c-1.629-0.054-3.042-0.514-4.234-1.384z"></path>
</svg>
