<?xml version="1.0" encoding="utf-8"?>
<!-- Generated by IcoMoon.io -->
<!DOCTYPE svg PUBLIC "-//W3C//DTD SVG 1.1//EN" "http://www.w3.org/Graphics/SVG/1.1/DTD/svg11.dtd">
<svg version="1.1" xmlns="http://www.w3.org/2000/svg" xmlns:xlink="http://www.w3.org/1999/xlink" width="32" height="32" viewBox="0 0 32 32">
<path fill="#000000" d="M12.465 5.111c3.898 0 7.070 3.19 7.070 7.111 0 1.477-0.453 2.898-1.311 4.11l-0.696 0.983-0.977 0.699c-1.205 0.863-2.618 1.319-4.086 1.319-3.899 0-7.070-3.19-7.070-7.111s3.171-7.111 7.070-7.111zM12.465 1.556c-5.858 0-10.606 4.776-10.606 10.667s4.748 10.667 10.606 10.667c2.289 0 4.403-0.737 6.135-1.977l8.517 8.566c0.346 0.348 0.799 0.522 1.253 0.522s0.906-0.174 1.252-0.522c0.692-0.695 0.692-1.823 0-2.518l-8.517-8.566c1.233-1.743 1.965-3.869 1.965-6.171 0-5.891-4.748-10.667-10.605-10.667v0z"></path>
</svg>
